<svg id="Capa_1" enable-background="new 0 0 512 512" height="512" viewBox="0 0 512 512" width="512" xmlns="http://www.w3.org/2000/svg"><g><g><g><g><g><path d="m310.043 73.877c-23.155-43.926-69.259-73.877-122.366-73.877s-99.211 29.951-122.366 73.877z" fill="#fff2e3"/><path d="m66.021 203.958c23.381 43.194 69.091 72.532 121.656 72.532s98.275-29.338 121.656-72.532z" fill="#fff2e3"/><path d="m268.41 73.877h41.631c-23.153-43.926-69.257-73.877-122.362-73.877-7.077 0-14.031.536-20.82 1.566 44.166 6.667 81.48 34.24 101.551 72.311z" fill="#fee7c9"/><path d="m267.699 203.958c-20.236 37.379-57.195 64.378-100.84 70.967 6.789 1.03 13.743 1.566 20.82 1.566 52.562 0 98.271-29.337 121.651-72.532h-41.631z" fill="#fee7c9"/><path d="m325.929 138.24c0 26.259-7.325 50.798-20.027 71.701h-236.446c-12.712-20.902-20.027-45.441-20.027-71.701 0-26.249 7.314-50.788 20.027-71.69h236.447c12.702 20.902 20.026 45.441 20.026 71.69z" fill="#1ca56f"/><path d="m325.929 138.24c0 26.259-7.325 50.798-20.027 71.701h-41.65c12.712-20.902 20.037-45.441 20.037-71.701 0-26.249-7.325-50.788-20.037-71.69h41.65c12.703 20.902 20.027 45.441 20.027 71.69z" fill="#158f5e"/></g></g><g><circle cx="187.677" cy="138.245" fill="#fff2e3" r="71.699"/></g></g><g><g><g><path d="m495.087 241.968c-22.357-46.252-69.72-78.157-124.536-78.157s-102.179 31.905-124.536 78.157z" fill="#fff2e3"/><path d="m249.865 369.515c23.658 42.234 68.834 70.786 120.686 70.786s97.028-28.552 120.686-70.786z" fill="#fff2e3"/><path d="m453.447 241.968h41.642c-22.357-46.255-69.721-78.159-124.542-78.159-7.077 0-14.021.536-20.81 1.566 45.805 6.915 84.239 36.312 103.71 76.593z" fill="#fee7c9"/><path d="m449.6 369.515c-20.429 36.468-56.902 62.733-99.863 69.219 6.789 1.03 13.732 1.566 20.81 1.566 51.856 0 97.033-28.552 120.691-70.784h-41.638z" fill="#fee7c9"/><path d="m508.797 302.059c0 26.249-7.314 50.788-20.027 71.701h-236.437c-12.712-20.913-20.027-45.452-20.027-71.701 0-26.259 7.314-50.798 20.027-71.701h236.437c12.713 20.903 20.027 45.442 20.027 71.701z" fill="#fcc16d"/><path d="m508.797 302.059c0 26.249-7.314 50.788-20.027 71.701h-41.64c12.702-20.902 20.027-45.452 20.027-71.701 0-26.259-7.325-50.798-20.027-71.701h41.64c12.713 20.903 20.027 45.442 20.027 71.701z" fill="#fcb44d"/></g></g><g><circle cx="370.551" cy="302.056" fill="#fff2e3" r="71.699"/></g></g><g><g><circle cx="141.448" cy="373.755" fill="#6586ac" r="138.245"/><path d="m279.695 373.76c0 76.347-61.893 138.24-138.25 138.24-7.077 0-14.031-.536-20.82-1.566 66.478-10.034 117.43-67.405 117.43-136.674 0-69.28-50.953-126.65-117.43-136.684 6.789-1.03 13.743-1.566 20.82-1.566 76.357 0 138.25 61.893 138.25 138.25z" fill="#5071a0"/></g><g><circle cx="141.448" cy="373.755" fill="#fff2e3" r="70.108"/></g></g></g><g fill="#5071a0"><path d="m159.535 368.882c3.292-4.027 5.271-9.167 5.271-14.762 0-12.88-10.478-23.358-23.358-23.358s-23.359 10.478-23.359 23.358c0 5.595 1.979 10.735 5.272 14.762-5.681 5.017-9.274 12.348-9.274 20.505 0 15.087 12.274 27.361 27.361 27.361s27.361-12.274 27.361-27.361c0-8.157-3.593-15.487-9.274-20.505zm-25.993-14.761c0-4.359 3.547-7.905 7.906-7.905s7.905 3.546 7.905 7.905-3.546 7.905-7.905 7.905-7.906-3.546-7.906-7.905zm7.906 47.174c-6.566 0-11.908-5.342-11.908-11.908s5.342-11.908 11.908-11.908 11.908 5.342 11.908 11.908-5.342 11.908-11.908 11.908z"/><path d="m395.026 286.72c0-13.496-10.98-24.476-24.476-24.476s-24.475 10.98-24.475 24.476 10.979 24.476 24.475 24.476c3.186 0 6.229-.618 9.023-1.731v10.917c0 4.975-4.048 9.023-9.023 9.023-3.636 0-6.9-2.164-8.317-5.514-1.663-3.93-6.194-5.77-10.126-4.106-3.93 1.662-5.768 6.196-4.106 10.126 3.841 9.079 12.692 14.946 22.549 14.946 13.496 0 24.476-10.98 24.476-24.476v-32.611c0-.119-.012-.234-.018-.351.007-.233.018-.465.018-.699zm-24.476 9.023c-4.975 0-9.023-4.048-9.023-9.023s4.048-9.023 9.023-9.023 9.023 4.048 9.023 9.023-4.047 9.023-9.023 9.023z"/><path d="m160.992 170.917c4.267 0 7.726-3.459 7.726-7.726v-49.892c0-4.267-3.459-7.726-7.726-7.726s-7.726 3.459-7.726 7.726v49.892c0 4.267 3.459 7.726 7.726 7.726z"/><path d="m214.362 105.572c-4.267 0-7.726 3.459-7.726 7.726v20.699h-12.842l5.196-18.623c1.147-4.11-1.256-8.372-5.366-9.519-4.112-1.147-8.372 1.256-9.519 5.366l-7.932 28.426c-.649 2.327-.173 4.824 1.288 6.748s3.738 3.054 6.154 3.054h23.02v13.74c0 4.267 3.459 7.726 7.726 7.726s7.726-3.459 7.726-7.726v-49.892c.002-4.265-3.458-7.725-7.725-7.725z"/></g></g></svg>